<svg id="sidebar_discuss" xmlns="http://www.w3.org/2000/svg" viewBox="0 0 24 24">
	<path d="M20.6,15.5c1.1-1.8,1.5-3.9,1.1-5.9c-0.4-2.2-1.7-4-3.5-5.3C14.4,1.7,9.2,2.7,6.7,6.5c-1.2,1.8-1.7,4-1.3,6.2
		s1.7,4,3.5,5.3c2.7,1.9,6.4,1.9,9.1,0.1l1.6,1c0.1,0.1,0.3,0.2,0.5,0.3c0.1,0,0.3,0.1,0.4,0.1c0.5,0,1-0.3,1.2-0.9
		c0-0.1,0-0.2,0.1-0.3c0-0.3-0.1-0.6-0.2-0.8L20.6,15.5z M19.2,15c-0.2,0.3-0.2,0.6,0,0.9l0.9,1.7l-1.5-0.9c-0.3-0.2-0.6-0.2-1,0
		c-2.3,1.6-5.4,1.7-7.7,0.1c-1.5-1-2.5-2.5-2.9-4.3c-0.3-1.8,0-3.6,1-5.1c1.3-1.9,3.5-3,5.6-3c1.3,0,2.6,0.4,3.8,1.2
		c1.5,1,2.5,2.5,2.9,4.3C20.6,11.6,20.2,13.4,19.2,15z"/>
	<circle cx="9.9" cy="11.3" r="0.9"/>
	<circle cx="13.6" cy="11.3" r="0.9"/>
	<circle cx="17.3" cy="11.3" r="0.9"/>
	<path d="M10.4,19.5C10.4,19.5,10.4,19.5,10.4,19.5c-1.4,0-2.8-0.4-3.9-1.3c-0.3-0.2-0.7-0.2-0.9,0l-1.5,1l0.9-1.7
		c0.2-0.3,0.2-0.7,0-1c-1.6-2.5-1.5-5.7,0.4-8c0.3-0.3,0.2-0.8-0.1-1.1C4.8,7.2,4.3,7.3,4,7.6c-2.2,2.7-2.5,6.5-0.7,9.5l-1,1.9
		c-0.1,0.3-0.2,0.6-0.2,0.9c0,0.1,0,0.2,0.1,0.3C2.4,20.7,2.9,21,3.5,21c0.1,0,0.3,0,0.4-0.1c0.2-0.1,0.3-0.1,0.4-0.2l1.7-1
		c1.3,0.9,2.8,1.3,4.4,1.3c0,0,0,0,0,0c0.4,0,0.7-0.3,0.7-0.8S10.8,19.5,10.4,19.5z"/>
</svg>
