<svg id="sidebar_timelist" xmlns="http://www.w3.org/2000/svg" viewBox="0 0 24 24">
	<path d="M20.2,4h-4.4V3.8c0-0.4-0.3-0.8-0.8-0.8s-0.8,0.3-0.8,0.8V4H9.7V3.8C9.7,3.3,9.3,3,8.9,3S8.2,3.3,8.2,3.8V4
		H3.8C3.3,4,3,4.4,3,4.8v15.5C3,20.7,3.3,21,3.8,21h16.5c0.4,0,0.8-0.3,0.8-0.8V4.8C21,4.4,20.7,4,20.2,4z M8.2,5.5v0.3
		c0,0.4,0.3,0.8,0.8,0.8s0.8-0.3,0.8-0.8V5.5h4.7v0.3c0,0.4,0.3,0.8,0.8,0.8s0.8-0.3,0.8-0.8V5.5h3.7v2.1h-15V5.5H8.2z M4.5,19.5
		V9.1h15v10.4H4.5z"/>
	<rect x="6.8" y="11" width="2.1" height="2.1"/>
	<rect x="6.8" y="15.1" width="2.1" height="2.1"/>
	<rect x="15.1" y="11" width="2.1" height="2.1"/>
	<rect x="15.1" y="15.1" width="2.1" height="2.1"/>
	<rect x="11" y="11" width="2.1" height="2.1"/>
	<rect x="11" y="15.1" width="2.1" height="2.1"/>
</svg>
