<svg id="sidebar_news" xmlns="http://www.w3.org/2000/svg" viewBox="0 0 24 24">
  <path d="M20.2,8.1c0.4,0,0.7-0.3,0.7-0.7V4.3c0-0.4-0.3-0.7-0.7-0.7H3.8c-0.4,0-0.7,0.3-0.7,0.7v3.1
	c0,0.4,0.3,0.7,0.7,0.7h0.3v7.8H3.8c-0.4,0-0.7,0.3-0.7,0.7v3.1c0,0.4,0.3,0.7,0.7,0.7h16.4c0.4,0,0.7-0.3,0.7-0.7v-3.1
	c0-0.4-0.3-0.7-0.7-0.7h-0.3V8.1H20.2z M19.5,19H4.5v-1.7h14.9V19z M14.6,13.5h-1c-1.3,0-2.5,1-2.7,2.3v0.1H5.5V8.1h12.9v7.8h-1.2
	v-0.1C17.1,14.5,16,13.5,14.6,13.5z M15.8,15.9h-3.5l0-0.1c0.2-0.5,0.7-0.8,1.2-0.8h1c0.5,0,1,0.3,1.2,0.8L15.8,15.9z M19.5,6.7H4.5
	V5h14.9V6.7z"/>
</svg>
