<svg id="sidebar_file" xmlns="http://www.w3.org/2000/svg" viewBox="0 0 24 24">
	<path d="M18,3.2H6C4.5,3.2,3.2,4.5,3.2,6v12c0,1.5,1.2,2.8,2.8,2.8h12c1.5,0,2.8-1.2,2.8-2.8V6
		C20.8,4.5,19.5,3.2,18,3.2z M19.2,18c0,0.7-0.6,1.2-1.2,1.2H6c-0.7,0-1.2-0.6-1.2-1.2V6c0-0.7,0.6-1.2,1.2-1.2h12
		c0.7,0,1.2,0.6,1.2,1.2V18z"/>
	<path d="M14.5,11.2c-0.1-0.2-0.4-0.3-0.6-0.3c0,0,0,0,0,0c-0.2,0-0.5,0.1-0.6,0.3L11,14.3L9.8,13
		c-0.2-0.2-0.4-0.2-0.6-0.2c-0.2,0-0.4,0.1-0.5,0.3l-2.8,3.7c-0.2,0.2-0.2,0.5-0.1,0.8C6,17.8,6.2,18,6.5,18h11
		c0.3,0,0.5-0.2,0.7-0.4c0.1-0.2,0.1-0.5,0-0.8L14.5,11.2z M8,16.5l1.3-1.8l1.2,1.3c0.2,0.2,0.4,0.2,0.6,0.2c0.2,0,0.4-0.1,0.6-0.3
		l2.1-2.9l2.3,3.5H8z"/>
	<circle cx="8.8" cy="7.9" r="1.2"/>
</svg>
