<svg id="sidebar_dayoff" xmlns="http://www.w3.org/2000/svg" viewBox="0 0 24 24">
	<path d="M18.7,6.8L17,5l-1.8-1.8C15.1,3.1,14.9,3,14.6,3H5.9C5.4,3,5,3.4,5,3.8v16.4C5,20.6,5.4,21,5.9,21h12.3
		c0.4,0,0.8-0.4,0.8-0.8V7.3C19,7.1,18.9,6.9,18.7,6.8z M15.9,6l1.2,1.2l-2.3-0.1V4.9L15.9,6z M6.5,19.5v-15h6.7v2.7
		c0,0.9,0.7,1.6,1.5,1.6h2.7v10.8H6.5z"/>
	<path d="M8.4,13.9h4.9c0.4,0,0.7-0.3,0.7-0.7c0-0.4-0.3-0.7-0.7-0.7H8.4c-0.4,0-0.7,0.3-0.7,0.7c0,0,0,0,0,0
		C7.7,13.6,8,13.9,8.4,13.9z"/>
	<path d="M13.3,15.7H8.4c-0.4,0-0.7,0.3-0.7,0.7c0,0,0,0,0,0c0,0.4,0.3,0.7,0.7,0.7h4.9c0.1,0,0.1,0,0.2,0
		c0.4,0,0.7-0.4,0.6-0.8C14,16,13.7,15.7,13.3,15.7z"/>
	<path d="M13.3,9.4H8.4c-0.4,0-0.7,0.3-0.7,0.7c0,0,0,0,0,0c0,0.4,0.3,0.7,0.7,0.7h4.9c0.1,0,0.1,0,0.2,0
		c0.4,0,0.7-0.4,0.6-0.8C14,9.6,13.7,9.3,13.3,9.4z"/>
</svg>
