<svg id="sidebar_group" xmlns="http://www.w3.org/2000/svg" viewBox="0 0 24 24">
	<path d="M13.8,14.7c-0.4-0.2-0.8,0-1,0.3c-0.2,0.4-0.1,0.8,0.3,1c0,0,0,0,0,0c1.3,0.7,2.2,1.9,2.4,3.4v0.1H4v-0.1
		C4.2,18,5.1,16.7,6.4,16c0.4-0.2,0.5-0.6,0.3-1c-0.1-0.2-0.4-0.4-0.6-0.4c-0.1,0-0.2,0-0.4,0.1c-2,1.1-3.3,3.2-3.2,5.5
		c0,0.4,0.3,0.7,0.7,0.7h13.1c0.4,0,0.7-0.4,0.7-0.8C17.1,17.9,15.8,15.8,13.8,14.7z"/>
	<path d="M9.7,14.4L9.7,14.4c2.9,0,5.2-2.3,5.2-5.1V8.1c0-2.8-2.3-5.1-5.1-5.1C7,3,4.7,5.3,4.7,8.1v1.2
		C4.7,12.1,6.9,14.4,9.7,14.4z M6.2,8.1c0-2,1.6-3.6,3.6-3.6s3.6,1.6,3.6,3.6v1.2c0,2-1.6,3.6-3.6,3.6H9.7c-2,0-3.6-1.6-3.6-3.6V8.1
		z"/>
	<path d="M19.2,14c-0.2-0.1-0.4-0.1-0.6,0c-0.2,0.1-0.3,0.2-0.4,0.3c-0.2,0.4,0,0.8,0.3,1c0.7,0.4,1.2,1,1.5,1.8v0.1
		h-1.6c-0.4,0-0.7,0.3-0.7,0.7c0,0.4,0.3,0.7,0.7,0.7v0h2.5c0.4,0,0.7-0.4,0.7-0.8C21.5,16.2,20.6,14.8,19.2,14z"/>
	<path d="M16.7,12.5C16.6,12.5,16.6,12.5,16.7,12.5c-0.4,0-0.8,0.3-0.8,0.7c0,0,0,0,0,0c0,0.4,0.3,0.7,0.8,0.7
		c1.8,0,3.2-1.4,3.2-3.2v-0.7c0-1.8-1.4-3.2-3.2-3.2c-0.4,0-0.7,0.3-0.7,0.7s0.3,0.7,0.7,0.7c0.9,0,1.7,0.8,1.7,1.7v0.7
		C18.4,11.7,17.6,12.5,16.7,12.5z"/>
</svg>
