<svg id="sidebar_rollcall" xmlns="http://www.w3.org/2000/svg" viewBox="0 0 24 24">
  <path d="M11.7,14c-2.8,0-5-2.2-5-4.9V7.9C6.7,5.2,8.9,3,11.6,3h0.1c2.7,0,4.9,2.2,4.9,4.9v1.1
	C16.6,11.8,14.4,14,11.7,14z M11.6,4.5C9.7,4.5,8.2,6,8.2,7.9v1.1c0,1.9,1.5,3.4,3.4,3.4c2,0,3.5-1.5,3.5-3.4V7.9
	C15.1,6,13.6,4.5,11.6,4.5L11.6,4.5z"/>
  <path d="M17.8,21H6.3c-0.2,0-0.4-0.1-0.6-0.3s-0.2-0.4-0.2-0.6l0.9-4.7c0.1-0.4,0.5-0.7,0.9-0.6
	c0.4,0.1,0.7,0.5,0.6,0.9l-0.7,3.8h9.7l-0.7-3.8c0-0.2,0-0.4,0.1-0.6l4.9-7.2c0.2-0.3,0.7-0.4,1-0.2c0.3,0.2,0.4,0.7,0.2,1l-4.7,7
	l0.9,4.3c0,0.2,0,0.4-0.2,0.6S18,21,17.8,21z"/>
</svg>
