<svg id="sidebar_member" xmlns="http://www.w3.org/2000/svg" viewBox="0 0 24 24">
  <path d="M16.1,14.7c-0.4-0.2-0.8-0.1-1,0.3c-0.2,0.4-0.1,0.8,0.3,1c1.3,0.7,2.2,2,2.4,3.4H6.2c0.2-1.5,1.1-2.7,2.4-3.4
		c0.4-0.2,0.5-0.6,0.3-1s-0.6-0.5-1-0.3c-2,1.1-3.3,3.2-3.3,5.5C4.6,20.7,5,21,5.4,21h13.2c0.2,0,0.4-0.1,0.5-0.2
		c0.1-0.1,0.2-0.4,0.2-0.6C19.3,17.9,18.1,15.8,16.1,14.7z"/>
  <path d="M12,14.4c2.8,0,5.1-2.3,5.1-5.1V8.1C17.2,5.3,14.9,3,12,3H12C9.1,3,6.9,5.3,6.9,8.1v1.2
		C6.9,12.1,9.1,14.4,12,14.4z M8.4,8.1c0-2,1.6-3.6,3.6-3.6H12c2,0,3.6,1.6,3.6,3.6v1.2c0,2-1.6,3.6-3.7,3.6c-2,0-3.6-1.6-3.6-3.6
		V8.1z"/>
</svg>
