<svg id="sidebar_homework" xmlns="http://www.w3.org/2000/svg" viewBox="0 0 24 24">
	<path d="M14.3,10.8C14.3,10.8,14.3,10.8,14.3,10.8H9.7c-0.4,0-0.7,0.3-0.7,0.7c0,0.4,0.3,0.7,0.7,0.7c0,0,0,0,0,0h4.5
		c0.4,0,0.7-0.3,0.7-0.7C14.9,11,14.6,10.8,14.3,10.8z"/>
	<path d="M11.6,14.1C11.6,14.1,11.6,14.1,11.6,14.1H9.7c-0.4,0-0.7,0.3-0.7,0.7c0,0.4,0.3,0.7,0.7,0.7h1.9
		c0.4,0,0.7-0.3,0.7-0.7C12.3,14.4,12,14.1,11.6,14.1z"/>
	<path d="M9.7,9h4.5c0.4,0,0.6-0.4,0.6-0.7c0-0.3-0.3-0.5-0.6-0.6v0H9.7C9.4,7.6,9,7.9,9,8.3S9.4,9,9.7,9z"/>
	<path d="M13.7,14.3c-0.1,0.1-0.2,0.3-0.2,0.5c0,0.2,0.1,0.3,0.2,0.5c0.3,0.3,0.7,0.3,1,0c0.1-0.1,0.2-0.3,0.2-0.5
		c0-0.2-0.1-0.3-0.2-0.5C14.4,14.1,14,14.1,13.7,14.3z"/>
	<path d="M18.2,3H5.8C5.4,3,5.1,3.3,5.1,3.7v16.6c0,0.4,0.3,0.7,0.7,0.7h12.5c0.4,0,0.7-0.3,0.7-0.7V3.7
		C18.9,3.3,18.6,3,18.2,3z M17.5,19.7H6.5V4.4h11.1V19.7z"/>
</svg>
